{"title":"Tekken 2010.DVDRip.H264.FEEL-FREE","uid":5740365,"size":1170019178,"categoryP":"video","categoryS":"movies","magnet":"?xt=urn:btih:652de9b8035147cc72c51299987b9d89c63b8b3a&amp;dn=Tekken+2010.DVDRip.H264.FEEL-FREE&amp;tr=udp%3A%2F%2Ftracker.openbittorrent.com%3A80&amp;tr=udp%3A%2F%2Fopen.demonii.com%3A1337&amp;tr=udp%3A%2F%2Ftracker.coppersurfer.tk%3A6969&amp;tr=udp%3A%2F%2Fexodus.desync.com%3A6969","seeders":0,"leechers":0,"uploader":"neon","files":-1,"time":1280969955,"description":"A Young Man Who seeks revenge of his mothers death. He finds his grand-father, Heihachi Mishima, and pleas to be trained. When the Mishima leader announces a &quot;King of Iron Fist&quot; tournament. He finds out that his mother's killer, OGRE, will be participating in the tournament. He must fight against the worlds top competitors to achieve his goal with no interference\n\nGenre:Action | Adventure | Drama | Fantasy | Sci-Fi\nLanguage:English\nIMDb:http://www.imdb.com/title/tt0411951/\nSource:DVDR-RETAiL\nSubtitles: ROMANA\n............................................\nGeneral\nComplete name : Tekken.2010.DVDRip.H264.FEEL-FREE\nFormat : MPEG-4\nFormat profile : Base Media\nCodec ID : isom\nFile size : 1.09 GiB\nDuration : 1h 27mn\nOverall bit rate : 1 780 Kbps\n............................................\nVideo\nID : 1\nFormat : AVC\nFormat/Info : Advanced Video Codec\nFormat profile : &lt;a class=&quot;__cf_email__&quot; href=&quot;/cdn-cgi/l/email-protection&quot; data-cfemail=&quot;e0a28193858c898e85a0acd5ced1&quot;&gt;[email&amp;#160;protected]&lt;/a&gt;&lt;script data-cfhash='f9e31' type=&quot;text/javascript&quot;&gt;\n/* &lt;![CDATA[ */!function(){try{var t=&quot;currentScript&quot;in document?document.currentScript:function(){for(var t=document.getElementsByTagName(&quot;script&quot;),e=t.length;e--;)if(t[e].getAttribute(&quot;data-cfhash&quot;))return t[e]}();if(t&amp;&amp;t.previousSibling){var e,r,n,i,c=t.previousSibling,a=c.getAttribute(&quot;data-cfemail&quot;);if(a){for(e=&quot;&quot;,r=parseInt(a.substr(0,2),16),n=2;a.length-n;n+=2)i=parseInt(a.substr(n,2),16)^r,e+=String.fromCharCode(i);e=document.createTextNode(e),c.parentNode.replaceChild(e,c)}t.parentNode.removeChild(t);}}catch(u){}}()/* ]]&gt; */&lt;/script&gt;\nFormat settings, CABAC : No\nFormat settings, ReFrames : 1 frame\nCodec ID : avc1\nCodec ID/Info : Advanced Video Coding\nDuration : 1h 27mn\nBit rate mode : Variable\nBit rate : 1 539 Kbps\nWidth : 688 pixels\nHeight : 288 pixels\nDisplay aspect ratio : 2.35:1\nFrame rate mode : Constant\nFrame rate : 25.000 fps\nResolution : 24 bits\nColorimetry : 4:2:0\nScan type : Progressive\nBits/(Pixel*Frame) : 0.311\nStream size : 963 MiB (86%)\n............................................\nAudio\nID : 2\nFormat : AAC\nFormat/Info : Advanced Audio Codec\nFormat version : Version 4\nFormat profile : LC\nFormat settings, SBR : No\nCodec ID : 40\nDuration : 1h 27mn\nBit rate mode : Variable\nBit rate : 236 Kbps\nChannel(s) : 6 channels\nChannel positions : Front: L C R, Rear: L R, LFE\nSampling rate : 48.0 KHz\nResolution : 16 bits\nStream size : 148 MiB (13%)","torrent":{"xt":"urn:btih:652de9b8035147cc72c51299987b9d89c63b8b3a","amp;dn":"Tekken+2010.DVDRip.H264.FEEL-FREE","amp;tr":["udp%3A%2F%2Ftracker.openbittorrent.com%3A80","udp%3A%2F%2Fopen.demonii.com%3A1337","udp%3A%2F%2Ftracker.coppersurfer.tk%3A6969","udp%3A%2F%2Fexodus.desync.com%3A6969"],"infoHash":"652de9b8035147cc72c51299987b9d89c63b8b3a","infoHashBuffer":{"type":"Buffer","data":[101,45,233,184,3,81,71,204,114,197,18,153,152,123,157,137,198,59,139,58]},"announce":[],"urlList":[]}}